<svg width="19" height="18" viewBox="0 0 19 18" fill="none" xmlns="http://www.w3.org/2000/svg">
<path d="M18.5 9.21774C18.5 10.9113 18.1311 12.4234 17.3934 13.754C16.6557 15.0847 15.6168 16.125 14.2766 16.875C12.9365 17.625 11.3934 18 9.64754 18C8 18 6.47541 17.5948 5.07377 16.7843C3.67213 15.9738 2.55943 14.879 1.73566 13.5C0.911885 12.121 0.5 10.621 0.5 9C0.5 7.37903 0.911885 5.87903 1.73566 4.5C2.55943 3.12097 3.67213 2.02621 5.07377 1.21573C6.47541 0.405242 8 0 9.64754 0C12.0328 0 14.0738 0.786291 15.7705 2.35887L13.2992 4.71774C12.5123 3.96774 11.5656 3.52016 10.459 3.375C9.42623 3.22984 8.40574 3.375 7.39754 3.81048C6.38934 4.24597 5.57787 4.89919 4.96311 5.77016C4.29918 6.71371 3.96721 7.79032 3.96721 9C3.96721 10.0403 4.22541 10.9899 4.7418 11.8488C5.2582 12.7077 5.94672 13.3972 6.80738 13.9173C7.66803 14.4375 8.61475 14.6976 9.64754 14.6976C10.7541 14.6976 11.7254 14.4556 12.5615 13.9718C13.2254 13.5847 13.7787 13.0645 14.2213 12.4113C14.541 11.879 14.75 11.3468 14.8484 10.8145H9.64754V7.69355H18.3525C18.4508 8.22581 18.5 8.73387 18.5 9.21774Z" fill="white"/>
</svg>
