<svg width="64" height="64" viewBox="0 0 64 64" fill="none" xmlns="http://www.w3.org/2000/svg">
<rect width="64" height="64" rx="32" fill="#D14343"/>
<path d="M25 28H27V36H25V28ZM32 28H29C28.45 28 28 28.45 28 29V35C28 35.55 28.45 36 29 36H32C32.55 36 33 35.55 33 35V29C33 28.45 32.55 28 32 28ZM31 34H30V30H31V34ZM38 28H35C34.45 28 34 28.45 34 29V35C34 35.55 34.45 36 35 36H38C38.55 36 39 35.55 39 35V29C39 28.45 38.55 28 38 28ZM37 34H36V30H37V34Z" fill="white"/>
<path d="M22 24V40H42V24H22ZM24 38V26H40V38H24Z" fill="white"/>
</svg>
