<svg width="64" height="64" viewBox="0 0 64 64" fill="none" xmlns="http://www.w3.org/2000/svg">
<rect width="64" height="64" rx="32" fill="#5048E5"/>
<path d="M30.1197 28.9016C30.3057 28.778 30.5349 28.6664 30.8001 28.5812V30.6188C30.5598 30.5435 30.3309 30.4357 30.1197 30.2984C29.6841 30.008 29.6001 29.7368 29.6001 29.6C29.6001 29.4632 29.6841 29.192 30.1197 28.9016ZM33.2001 35.4188V33.3812C33.4641 33.4664 33.6945 33.578 33.8805 33.7016C34.3173 33.9932 34.4001 34.2632 34.4001 34.4C34.4001 34.5368 34.3161 34.808 33.8805 35.0984C33.6693 35.2357 33.4404 35.3435 33.2001 35.4188Z" fill="white"/>
<path fill-rule="evenodd" clip-rule="evenodd" d="M31.9999 41.6C34.546 41.6 36.9878 40.5886 38.7881 38.7882C40.5885 36.9879 41.5999 34.5461 41.5999 32C41.5999 29.4539 40.5885 27.0121 38.7881 25.2118C36.9878 23.4114 34.546 22.4 31.9999 22.4C29.4538 22.4 27.012 23.4114 25.2117 25.2118C23.4113 27.0121 22.3999 29.4539 22.3999 32C22.3999 34.5461 23.4113 36.9879 25.2117 38.7882C27.012 40.5886 29.4538 41.6 31.9999 41.6ZM33.1999 26C33.1999 25.6817 33.0735 25.3765 32.8484 25.1515C32.6234 24.9264 32.3182 24.8 31.9999 24.8C31.6816 24.8 31.3764 24.9264 31.1514 25.1515C30.9263 25.3765 30.7999 25.6817 30.7999 26V26.1104C30.0831 26.238 29.3992 26.5081 28.7887 26.9048C27.9223 27.4808 27.1999 28.4108 27.1999 29.6C27.1999 30.788 27.9223 31.718 28.7887 32.2952C29.3647 32.6792 30.0535 32.9492 30.7999 33.0896V35.4188C30.3307 35.2664 29.9839 35.0384 29.7883 34.814C29.6868 34.6894 29.5613 34.5865 29.4192 34.5114C29.2772 34.4362 29.1215 34.3904 28.9614 34.3765C28.8013 34.3627 28.64 34.3811 28.4872 34.4308C28.3344 34.4805 28.1931 34.5603 28.0717 34.6656C27.9503 34.7709 27.8513 34.8995 27.7806 35.0438C27.7098 35.1881 27.6688 35.3452 27.6599 35.5056C27.651 35.6661 27.6744 35.8267 27.7288 35.9779C27.7831 36.1291 27.8673 36.2679 27.9763 36.386C28.6507 37.1648 29.6719 37.6772 30.7999 37.8896V38C30.7999 38.3183 30.9263 38.6235 31.1514 38.8485C31.3764 39.0736 31.6816 39.2 31.9999 39.2C32.3182 39.2 32.6234 39.0736 32.8484 38.8485C33.0735 38.6235 33.1999 38.3183 33.1999 38V37.8896C33.9167 37.762 34.6006 37.4919 35.2111 37.0952C36.0775 36.5192 36.7999 35.5892 36.7999 34.4C36.7999 33.212 36.0775 32.282 35.2111 31.7048C34.6006 31.3081 33.9167 31.038 33.1999 30.9104V28.5812C33.6691 28.7336 34.0159 28.9616 34.2115 29.186C34.314 29.3076 34.4396 29.4076 34.581 29.4802C34.7225 29.5528 34.8769 29.5966 35.0354 29.609C35.1939 29.6214 35.3533 29.6022 35.5044 29.5525C35.6554 29.5027 35.795 29.4235 35.9151 29.3193C36.0353 29.2152 36.1335 29.0882 36.2042 28.9458C36.2748 28.8033 36.3164 28.6482 36.3266 28.4896C36.3368 28.3309 36.3154 28.1718 36.2635 28.0215C36.2117 27.8712 36.1305 27.7327 36.0247 27.614C35.3491 26.8352 34.3291 26.3228 33.1999 26.1104V26Z" fill="white"/>
</svg>
