<svg width="27" height="23" viewBox="0 0 27 23" fill="none" xmlns="http://www.w3.org/2000/svg">
<path fill-rule="evenodd" clip-rule="evenodd" d="M24.1666 0C24.7684 0 25.28 0.206597 25.7013 0.619792C26.1226 1.03299 26.3333 1.53472 26.3333 2.125V14.875C26.3333 15.4653 26.1226 15.967 25.7013 16.3802C25.28 16.7934 24.7684 17 24.1666 17H2.49992C1.89807 17 1.38649 16.7934 0.965196 16.3802C0.5439 15.967 0.333252 15.4653 0.333252 14.875V2.125C0.333252 1.53472 0.5439 1.03299 0.965196 0.619792C1.38649 0.206597 1.89807 0 2.49992 0H24.1666ZM24.0583 15C24.1194 15 24.1805 14.9699 24.2416 14.9097C24.3027 14.8495 24.3333 14.7894 24.3333 14.7292V2.27083C24.3333 2.21065 24.3027 2.15046 24.2416 2.09028C24.1805 2.03009 24.1194 2 24.0583 2H2.60825C2.54714 2 2.48603 2.03009 2.42492 2.09028C2.36381 2.15046 2.33325 2.21065 2.33325 2.27083V14.7292C2.33325 14.7894 2.36381 14.8495 2.42492 14.9097C2.48603 14.9699 2.54714 15 2.60825 15H24.0583ZM21.0234 22.6875C21.23 22.4792 21.3333 22.2262 21.3333 21.9286C21.3333 21.631 21.23 21.378 21.0234 21.1696C20.8168 20.9613 20.5659 20.8571 20.2708 20.8571H15.8879L15.0911 18.3571C15.0025 18.119 14.8254 18 14.5598 18H11.1067C10.8411 18 10.664 18.119 10.5754 18.3571L9.77856 20.8571H5.39575C5.10061 20.8571 4.84975 20.9613 4.64315 21.1696C4.43655 21.378 4.33325 21.631 4.33325 21.9286C4.33325 22.2262 4.43655 22.4792 4.64315 22.6875C4.84975 22.8958 5.10061 23 5.39575 23H20.2708C20.5659 23 20.8168 22.8958 21.0234 22.6875Z" fill="#6B7280"/>
</svg>
