<svg width="142" height="42" viewBox="0 0 142 42" fill="none" xmlns="http://www.w3.org/2000/svg">
<path d="M46.6744 4.50247L55.9038 9.66459C56.117 9.78381 56.2944 9.95738 56.4178 10.1674C56.5413 10.3775 56.6064 10.6164 56.6064 10.8597C56.6064 11.1031 56.5413 11.342 56.4178 11.5521C56.2944 11.7621 56.117 11.9357 55.9038 12.0549L46.6745 17.2172C46.0854 17.5467 45.4212 17.7198 44.7456 17.7198C44.0698 17.7198 43.4056 17.5467 42.8166 17.2172L33.5873 12.0549C33.3741 11.9357 33.1967 11.7621 33.0732 11.5521C32.9497 11.342 32.8846 11.1031 32.8846 10.8597C32.8846 10.6164 32.9497 10.3775 33.0732 10.1674C33.1967 9.95738 33.3741 9.78381 33.5873 9.66459L42.8166 4.50247C43.4056 4.17301 44.0698 4 44.7456 4C45.4212 4 46.0854 4.17301 46.6744 4.50247Z" fill="#828DF8"/>
<path opacity="0.7" d="M46.6244 9.34853L59.8422 16.7415C60.0554 16.8607 60.2328 17.0343 60.3563 17.2443C60.4798 17.4544 60.5449 17.6933 60.5449 17.9366C60.5449 18.18 60.4798 18.419 60.3563 18.629C60.2328 18.8391 60.0554 19.0126 59.8422 19.1319L46.6244 26.5248C46.0355 26.8541 45.3712 27.0272 44.6956 27.0272C44.0199 27.0272 43.3557 26.8541 42.7667 26.5248L29.5489 19.1319C29.3358 19.0126 29.1583 18.8391 29.0348 18.629C28.9113 18.419 28.8462 18.18 28.8462 17.9366C28.8462 17.6933 28.9113 17.4544 29.0348 17.2443C29.1583 17.0343 29.3358 16.8607 29.5489 16.7415L42.7667 9.34853C43.3557 9.01916 44.0199 8.84615 44.6956 8.84615C45.3712 8.84615 46.0355 9.01916 46.6244 9.34853Z" fill="#828DF8"/>
<path opacity="0.4" d="M46.9257 14.1939L65.2984 24.4703C65.5113 24.5894 65.6884 24.7626 65.8117 24.9724C65.935 25.182 66 25.4206 66 25.6636C66 25.9065 65.935 26.1451 65.8117 26.3548C65.6884 26.5645 65.5113 26.7378 65.2984 26.8568L46.9257 37.1329C46.3377 37.4618 45.6745 37.6346 45 37.6346C44.3254 37.6346 43.6623 37.4618 43.0743 37.1329L24.7015 26.8568C24.4887 26.7378 24.3116 26.5645 24.1883 26.3548C24.065 26.1451 24 25.9065 24 25.6636C24 25.4206 24.065 25.182 24.1883 24.9724C24.3116 24.7626 24.4887 24.5894 24.7015 24.4703L43.0743 14.1939C43.6623 13.8651 44.3254 13.6923 45 13.6923C45.6745 13.6923 46.3377 13.8651 46.9257 14.1939Z" fill="#828DF8"/>
<rect x="74" width="44" height="20" rx="4" fill="#828DF8"/>
<path d="M82.6321 14H84.1697V10.9957H87.1278V9.72798H84.1697V7.99503H87.4474V6.72727H82.6321V14ZM89.4817 14H91.0194V11.4219H92.1415L93.5194 14H95.2168L93.6721 11.1733C94.4995 10.8182 94.9576 10.0973 94.9576 9.10298C94.9576 7.65767 94.0023 6.72727 92.351 6.72727H89.4817V14ZM91.0194 10.1861V7.98438H92.0563C92.9441 7.98438 93.3738 8.37855 93.3738 9.10298C93.3738 9.82386 92.9441 10.1861 92.0634 10.1861H91.0194ZM97.0442 14H101.959V12.7322H98.5819V10.9957H101.693V9.72798H98.5819V7.99503H101.945V6.72727H97.0442V14ZM104.167 14H109.082V12.7322H105.705V10.9957H108.816V9.72798H105.705V7.99503H109.068V6.72727H104.167V14Z" fill="white"/>
</svg>
