<svg width="20" height="23" viewBox="0 0 20 23" fill="none" xmlns="http://www.w3.org/2000/svg">
<path fill-rule="evenodd" clip-rule="evenodd" d="M20 2.15625V20.8438C20 21.4427 19.7917 21.9518 19.375 22.3711C18.9583 22.7904 18.4524 23 17.8571 23H2.14286C1.54762 23 1.04167 22.7904 0.625 22.3711C0.208334 21.9518 0 21.4427 0 20.8438V2.15625C0 1.55729 0.208334 1.04818 0.625 0.628906C1.04167 0.209636 1.54762 0 2.14286 0H17.8571C18.4524 0 18.9583 0.209636 19.375 0.628906C19.7917 1.04818 20 1.55729 20 2.15625ZM12 18.5C12 18.9062 11.8516 19.2578 11.5547 19.5547C11.2578 19.8516 10.9062 20 10.5 20C10.0938 20 9.74219 19.8516 9.44531 19.5547C9.14844 19.2578 9 18.8906 9 18.4531C9 18.0156 9.14062 17.6641 9.42188 17.3984C9.70312 17.1328 10.0547 17 10.4766 17C10.8984 17 11.2578 17.1484 11.5547 17.4453C11.8516 17.7422 12 18.0938 12 18.5ZM18 2.27404V20.726C18 20.7869 17.9697 20.8478 17.9091 20.9087C17.8485 20.9696 17.7879 21 17.7273 21H2.27273C2.21212 21 2.15152 20.9696 2.09091 20.9087C2.0303 20.8478 2 20.7869 2 20.726V2.27404C2 2.21314 2.0303 2.15224 2.09091 2.09135C2.15152 2.03045 2.21212 2 2.27273 2H17.7273C17.7879 2 17.8485 2.03045 17.9091 2.09135C17.9697 2.15224 18 2.21314 18 2.27404Z" fill="#6B7280"/>
</svg>
