<svg width="18" height="20" viewBox="0 0 18 20" fill="none" xmlns="http://www.w3.org/2000/svg">
<path fill-rule="evenodd" clip-rule="evenodd" d="M0.933594 18.4C0.933594 18.0818 1.06002 17.7765 1.28507 17.5515C1.51011 17.3265 1.81533 17.2 2.13359 17.2H16.5336C16.8519 17.2 17.1571 17.3265 17.3821 17.5515C17.6072 17.7765 17.7336 18.0818 17.7336 18.4C17.7336 18.7183 17.6072 19.0235 17.3821 19.2486C17.1571 19.4736 16.8519 19.6 16.5336 19.6H2.13359C1.81533 19.6 1.51011 19.4736 1.28507 19.2486C1.06002 19.0235 0.933594 18.7183 0.933594 18.4ZM4.88519 9.15162C5.11023 8.92666 5.4154 8.80028 5.73359 8.80028C6.05179 8.80028 6.35696 8.92666 6.58199 9.15162L8.13359 10.7032V1.60002C8.13359 1.28176 8.26002 0.97654 8.48507 0.751496C8.71011 0.526453 9.01533 0.400024 9.33359 0.400024C9.65185 0.400024 9.95708 0.526453 10.1821 0.751496C10.4072 0.97654 10.5336 1.28176 10.5336 1.60002V10.7032L12.0852 9.15162C12.1959 9.03701 12.3283 8.94559 12.4747 8.8827C12.6211 8.81981 12.7786 8.78671 12.9379 8.78532C13.0972 8.78394 13.2553 8.8143 13.4027 8.87464C13.5502 8.93498 13.6842 9.02408 13.7969 9.13675C13.9095 9.24942 13.9986 9.3834 14.059 9.53088C14.1193 9.67835 14.1497 9.83637 14.1483 9.9957C14.1469 10.155 14.1138 10.3125 14.0509 10.4589C13.988 10.6053 13.8966 10.7377 13.782 10.8484L10.182 14.4484C9.95696 14.6734 9.65179 14.7998 9.33359 14.7998C9.0154 14.7998 8.71023 14.6734 8.48519 14.4484L4.88519 10.8484C4.66023 10.6234 4.53385 10.3182 4.53385 10C4.53385 9.68183 4.66023 9.37666 4.88519 9.15162Z" fill="#6B7280"/>
</svg>
